<?xml version="1.0" standalone="no"?>
<!DOCTYPE svg PUBLIC "-//W3C//DTD SVG 1.1//EN" "http://www.w3.org/Graphics/SVG/1.1/DTD/svg11.dtd" >
<svg xmlns="http://www.w3.org/2000/svg">
<metadata></metadata>
<defs>
<font id="neogothis_adf_stdlight" horiz-adv-x="1728" >
<font-face units-per-em="2048" ascent="1536" descent="-512" />
<missing-glyph horiz-adv-x="665" />
<glyph unicode="AE" horiz-adv-x="2023" d="M125 0v717q0 150 58 286.5t156 235.5t233 157t284 58q206 0 395 -115q179 95 371 95h360v-107h-358q-242 0 -417.5 -156t-207.5 -407h797v-96h-799q20 -167 109.5 -295.5t224.5 -197.5t293 -69h358v-106h-360q-189 0 -348.5 83.5t-260.5 236.5t-120 348h-504v96h502 q15 154 79 278t183 232q-168 72 -297 72q-169 0 -313.5 -84.5t-229 -230t-84.5 -316.5v-715h-104z" />
<glyph unicode="ae" horiz-adv-x="1826" d="M104 461q0 199 138 340t333 141q184 0 363 -168v148h96v-164q98 98 183 141t182 43q123 0 220 -62.5t155 -166.5l-666 -473q122 -152 291 -152q129 0 231 86l82 -74q-136 -120 -313 -120q-97 0 -182 44.5t-183 145.5v-190l-123 139q-151 -139 -336 -139q-195 0 -333 141 t-138 340zM211 461q0 -154 106.5 -263.5t257.5 -109.5q149 0 256 109.5t107 263.5t-107 263.5t-256 109.5q-151 0 -257.5 -109.5t-106.5 -263.5zM1034 461q0 -58 29 -146l551 394q-60 125 -215 125q-151 0 -258 -109.5t-107 -263.5z" />
<glyph unicode="OE" horiz-adv-x="1976" d="M86 717q0 150 58 287t156 236t233.5 157.5t283.5 58.5q206 0 395 -115q178 93 363 93h360v-107h-358q-242 0 -417.5 -155t-207.5 -406h797v-94h-799q20 -168 109 -297.5t224.5 -199t293.5 -69.5h358v-106h-360q-189 0 -367 94q-184 -114 -391 -114q-149 0 -284 58 t-233 157t-156 235.5t-58 286.5zM190 719q0 -171 84.5 -316.5t229 -230t313.5 -84.5q123 0 295 72q-270 237 -270 557q0 326 274 563q-170 70 -299 70q-169 0 -313.5 -84.5t-229 -230t-84.5 -316.5z" />
<glyph unicode="oe" horiz-adv-x="1837" d="M104 461q0 131 63 241.5t171 175t235 64.5q261 0 418 -260q77 128 184 194t234 66q123 0 220 -62.5t155 -166.5l-666 -473q122 -152 291 -152q129 0 231 86l82 -74q-136 -120 -313 -120q-126 0 -233 66.5t-185 195.5q-78 -129 -185 -195.5t-233 -66.5q-127 0 -235 64.5 t-171 175t-63 241.5zM211 461q0 -154 106.5 -263.5t255.5 -109.5q151 0 258 109.5t107 263.5t-107 263.5t-258 109.5q-149 0 -255.5 -109.5t-106.5 -263.5zM1044 461q0 -58 29 -146l551 394q-60 125 -215 125q-151 0 -258 -109.5t-107 -263.5z" />
<glyph unicode="&#xfb01;" horiz-adv-x="1079" d="M66 815v107h163v59q0 176 117 311.5t289 161.5v-108q-128 -25 -212.5 -129t-84.5 -236v-59h582v-922h-109v815h-473v-815h-109v815h-163zM774 1247q0 37 27 63.5t65 26.5q37 0 64.5 -26.5t27.5 -63.5t-27.5 -63.5t-64.5 -26.5q-38 0 -65 26.5t-27 63.5z" />
<glyph unicode="&#xfb02;" horiz-adv-x="1081" d="M66 815v107h163v61q0 180 125.5 306.5t311.5 144.5h256v-1434h-109v1327h-151q-138 -18 -231 -113.5t-93 -230.5v-61h164v-107h-164v-815h-109v815h-163z" />
<glyph unicode="&#xfb03;" horiz-adv-x="1589" d="M43 815v107h160q1 91 37.5 174t94 140.5t127 95t138.5 46.5v-106q-119 -12 -202.5 -107t-90.5 -243h465v59q0 176 114.5 311.5t282.5 161.5v-108q-125 -25 -208.5 -129t-83.5 -236v-59h569v-922h-107v815h-462v-815h-105v815h-463v-815h-106v815h-160zM1305 1247 q0 37 26.5 63.5t63.5 26.5t63.5 -26.5t26.5 -63.5t-26.5 -63.5t-63.5 -26.5t-63.5 26.5t-26.5 63.5z" />
<glyph unicode="&#xfb04;" horiz-adv-x="1607" d="M43 815v107h160q1 91 37.5 174.5t94 141t127 94.5t138.5 46v-104q-119 -12 -202.5 -108t-90.5 -244h465v61q0 181 122 307.5t304 143.5h250v-1434h-107v1329h-147q-135 -18 -225 -114t-90 -232v-61h159v-107h-159v-815h-107v815h-463v-815h-106v815h-160z" />
<glyph horiz-adv-x="2048" />
<glyph horiz-adv-x="2048" />
<glyph unicode="&#xd;" horiz-adv-x="2048" />
<glyph unicode=" "  horiz-adv-x="665" />
<glyph unicode="&#x09;" horiz-adv-x="665" />
<glyph unicode="&#xa0;" horiz-adv-x="665" />
<glyph unicode="!" horiz-adv-x="456" d="M145 59q0 34 24 58t58 24q35 0 59.5 -24t24.5 -58t-24.5 -56.5t-59.5 -22.5q-34 0 -58 23t-24 56zM160 426v1008h135v-1008h-135z" />
<glyph unicode="&#x22;" horiz-adv-x="655" d="M84 1434h111l-31 -410h-49zM399 1434h111l-31 -410h-49z" />
<glyph unicode="#" horiz-adv-x="1214" d="M39 209v108h246l39 377h-179v109h189l22 221h107l-21 -221h375l23 221h106l-22 -221h241v-109h-252l-39 -377h185v-108h-193l-22 -209h-107l21 209h-375l-23 -209h-106l22 209h-237zM393 317h375l37 377h-375z" />
<glyph unicode="$" horiz-adv-x="1007" d="M39 135l82 72q103 -103 307 -119v637q-75 36 -128 69.5t-101.5 79.5t-73.5 104t-25 128q0 120 84.5 218t243.5 126v86h109v-86q186 -22 303 -152l-80 -69q-42 44 -93.5 72.5t-129.5 44.5v-545q44 -20 71 -33t66.5 -33t64.5 -35t56.5 -37t51 -41.5t40.5 -45.5t32.5 -52 t19 -57.5t7.5 -65.5q0 -157 -112 -266t-297 -145v-92h-109v84q-120 6 -222 46.5t-167 106.5zM209 1108q0 -33 6.5 -57.5t28 -56.5t67 -67t117.5 -75v494q-118 -24 -168.5 -83t-50.5 -155zM537 98q141 37 221 113.5t80 189.5q0 46 -21.5 85t-67 73t-92 59.5t-120.5 59.5v-580 z" />
<glyph unicode="%" horiz-adv-x="1808" d="M92 827v340q0 118 86.5 202.5t206.5 84.5q121 0 208 -85t87 -202v-340q0 -118 -86.5 -201t-208.5 -83q-121 0 -207 82.5t-86 201.5zM176 827q0 -86 61.5 -143t147.5 -57q88 0 149.5 57t61.5 143v340q0 84 -62 142.5t-149 58.5q-86 0 -147.5 -58.5t-61.5 -142.5v-340z M412 0l866 1434h96l-866 -1434h-96zM1124 266v340q0 121 86 204t207 83q122 0 208.5 -83.5t86.5 -203.5v-340q0 -118 -86.5 -201t-208.5 -83q-121 0 -207 83t-86 201zM1208 266q0 -84 61.5 -142t147.5 -58q87 0 149 58t62 142v340q0 86 -62 144.5t-149 58.5 q-85 0 -147 -59.5t-62 -143.5v-340z" />
<glyph unicode="&#x26;" horiz-adv-x="1255" d="M76 453q0 129 68 238t194 183q-141 141 -141 259q0 132 92.5 226.5t253.5 94.5h12q98 0 171 -38.5t140 -115.5l-80 -69q-49 58 -102 87.5t-129 29.5h-6q-229 0 -236 -218q7 -42 51 -110t97 -123l479 -512l51 176l94 -31l-69 -227l225 -235l-72 -76l-204 219 q-78 -113 -183.5 -172t-228.5 -59q-198 0 -337.5 138.5t-139.5 334.5zM182 453q0 -152 108.5 -259.5t262.5 -107.5q97 0 186.5 55t145.5 146l-473 497q-113 -45 -171.5 -131t-58.5 -200z" />
<glyph unicode="'" horiz-adv-x="409" d="M121 1434h147l-41 -410h-65z" />
<glyph unicode="(" horiz-adv-x="618" d="M90 594q0 275 119.5 489.5t384.5 376.5l8 -6q-220 -172 -296.5 -349.5t-76.5 -504.5q0 -120 8.5 -212t31.5 -187t64 -172.5t107.5 -155.5t159.5 -149l-10 -11q-150 86 -265 232t-175 315t-60 334z" />
<glyph unicode=")" horiz-adv-x="624" d="M25 1454l8 6q265 -162 384.5 -376.5t119.5 -489.5q0 -165 -60 -334t-175 -315t-265 -232l-10 11q93 71 159.5 149t107 155.5t64 172.5t31.5 186.5t8 212.5q0 223 -32 365.5t-111 257t-229 231.5z" />
<glyph unicode="*" horiz-adv-x="772" d="M98 1106l226 131l-226 129l35 55l223 -127v254h66v-256l219 125l33 -55l-219 -127l219 -127l-33 -53l-219 125v-256h-66v254l-225 -127z" />
<glyph unicode="+" horiz-adv-x="999" d="M39 406v108h407v408h109v-408h406v-108h-406v-406h-109v406h-407z" />
<glyph unicode="," horiz-adv-x="466" d="M74 -178l215 354l94 -63l-268 -320z" />
<glyph unicode="-" horiz-adv-x="999" d="M39 406v108h922v-108h-922z" />
<glyph unicode="." horiz-adv-x="477" d="M127 82q0 43 29.5 73.5t72.5 30.5t74 -30.5t31 -73.5q0 -42 -31 -72t-74 -30t-72.5 29.5t-29.5 72.5z" />
<glyph unicode="/" horiz-adv-x="661" d="M29 0l485 1434h109l-486 -1434h-108z" />
<glyph unicode="0" horiz-adv-x="1212" d="M125 436v561q0 126 64.5 231t175 165.5t239.5 60.5q97 0 185.5 -36t153.5 -97t103.5 -146t38.5 -178v-561q0 -125 -65 -230t-176 -165.5t-240 -60.5t-239 60t-175 165t-65 231zM231 436q0 -146 111 -248t262 -102q152 0 262.5 101.5t110.5 248.5v561q0 147 -111 249 t-262 102t-262 -102.5t-111 -248.5v-561z" />
<glyph unicode="1" horiz-adv-x="471" d="M39 1274l133 160h139v-1434h-123v1274h-149z" />
<glyph unicode="2" horiz-adv-x="978" d="M43 0q2 97 23 180t52.5 141.5t80.5 113t93 90t105 75.5q20 14 135 86q57 38 94 68t75.5 73t57.5 94.5t19 112.5q-2 152 -85 233t-238 81q-79 0 -150.5 -30.5t-122.5 -86.5l-78 74q67 70 158 109.5t193 39.5q201 0 316.5 -112t115.5 -308q0 -53 -12 -101.5t-31.5 -86.5 t-50.5 -75.5t-61.5 -64.5t-73 -58t-76.5 -52.5t-81 -52t-77 -51.5q-75 -53 -117 -95q-57 -58 -87.5 -126t-31.5 -165h703l35 -106h-883z" />
<glyph unicode="3" horiz-adv-x="882" d="M10 90l84 72q98 -76 228 -76q155 0 265.5 107.5t110.5 259.5q0 150 -109.5 248t-266.5 98h-97v104h90q94 0 162 76.5t68 163.5q0 92 -60 153.5t-161 61.5h-9q-43 0 -77 -15.5t-80 -58.5l-72 70q114 98 231 100h13q152 0 236.5 -89t84.5 -222q0 -75 -38.5 -148.5 t-116.5 -132.5q311 -147 311 -409q0 -196 -142 -334.5t-343 -138.5q-176 0 -312 110z" />
<glyph unicode="4" horiz-adv-x="1105" d="M66 512l526 922h108l-462 -830h479v318h106v-318h217v-92h-217v-512h-106v512h-651z" />
<glyph unicode="5" horiz-adv-x="983" d="M68 793l151 641h602l-35 -107h-501l-127 -508q117 105 254 105h12q132 -1 243.5 -64t176.5 -171t65 -236q0 -196 -142 -334.5t-343 -138.5q-103 0 -194 39.5t-158 109.5l80 74q108 -117 272 -117q156 0 266.5 107.5t110.5 259.5q0 151 -111 257.5t-266 106.5 q-136 0 -236 -94z" />
<glyph unicode="6" horiz-adv-x="1103" d="M74 453q0 173 135 446q36 73 82 158t115 209t104 188l100 -29q-192 -320 -336 -618q178 117 281 117q200 -3 340.5 -140t140.5 -331q0 -129 -64.5 -238t-175 -172t-241.5 -63t-241.5 63t-175 172t-64.5 238zM182 453q0 -152 109.5 -259.5t263.5 -107.5t263.5 107.5 t109.5 259.5q0 151 -109.5 257.5t-263.5 106.5t-263.5 -106.5t-109.5 -257.5z" />
<glyph unicode="7" horiz-adv-x="897" d="M18 1327v107h828l-381 -1434h-117l369 1327h-699z" />
<glyph unicode="8" horiz-adv-x="1112" d="M72 453q0 138 78.5 250t226.5 182q-156 120 -156 256q0 125 99 219t229 94t231 -94t101 -219q0 -137 -154 -256q149 -70 228 -182t79 -250q0 -129 -64.5 -238t-175 -172t-241.5 -63t-241.5 63t-175 172t-64.5 238zM180 453q0 -152 109.5 -259.5t263.5 -107.5t263.5 107.5 t109.5 259.5q0 151 -109.5 259.5t-263.5 108.5t-263.5 -108.5t-109.5 -259.5zM326 1130q0 -76 65.5 -143t157.5 -67q93 0 159 67.5t66 153.5q0 92 -60.5 157.5t-160.5 65.5h-4q-96 0 -157 -64.5t-66 -156.5v-13z" />
<glyph unicode="9" horiz-adv-x="1105" d="M63 981q0 129 64.5 238t175.5 172t242 63t241.5 -63t175 -172t64.5 -238q0 -173 -135 -446q-36 -73 -82 -158t-115 -209t-104 -188l-101 28q190 316 336 619q-178 -117 -280 -117q-200 3 -341 140t-141 331zM172 981q0 -151 109.5 -258t263.5 -107t263.5 107t109.5 258 q0 152 -109.5 259.5t-263.5 107.5t-263.5 -107.5t-109.5 -259.5z" />
<glyph unicode=":" horiz-adv-x="462" d="M127 82q0 43 29.5 73.5t72.5 30.5t74 -30.5t31 -73.5q0 -42 -31 -72t-74 -30t-72.5 29.5t-29.5 72.5zM127 717q0 43 29.5 73.5t72.5 30.5t74 -30.5t31 -73.5t-31 -73t-74 -30t-72.5 30t-29.5 73z" />
<glyph unicode=";" horiz-adv-x="479" d="M74 -180l215 323l94 -57l-268 -293zM160 717q0 43 29.5 73.5t72.5 30.5t74 -30.5t31 -73.5t-31 -73t-74 -30t-72.5 30t-29.5 73z" />
<glyph unicode="&#x3c;" horiz-adv-x="1157" d="M76 578v108l977 311v-100l-836 -266l836 -264v-103z" />
<glyph unicode="=" horiz-adv-x="1241" d="M160 219v115h921v-115h-921zM160 586v114h921v-114h-921z" />
<glyph unicode="&#x3e;" horiz-adv-x="1153" d="M100 264v103l836 264l-836 266v100l977 -311v-108z" />
<glyph unicode="?" horiz-adv-x="905" d="M12 1335q135 119 326 119q201 0 343 -138.5t142 -334.5q0 -177 -122 -308.5t-314 -160.5v-86h-111v195q23 -5 62 -5q155 0 266 107t111 258q0 152 -110.5 259.5t-266.5 107.5q-139 0 -248 -91zM244 59q0 34 24 58t58 24q35 0 59.5 -24t24.5 -58t-24.5 -56.5t-59.5 -22.5 q-34 0 -58 23t-24 56z" />
<glyph unicode="@" horiz-adv-x="1591" d="M84 707q0 154 57.5 293t153.5 238t227.5 157.5t274.5 58.5q148 0 276.5 -41t226 -117.5t153.5 -195.5t56 -266q0 -220 -90.5 -356.5t-251.5 -143.5l-118 117q-123 -111 -269 -111q-152 0 -259 107t-107 258q0 152 107 260t259 108q141 0 293 -137v119h68v-639 q152 17 222.5 115t70.5 286q0 139 -51.5 248.5t-140 177t-202 102.5t-243.5 35q-128 0 -246 -53.5t-204 -143.5t-137.5 -215t-51.5 -261q0 -135 51 -260.5t136 -216.5t201.5 -146t241.5 -55q101 0 163 11.5t132 47.5v-72q-68 -38 -128 -48.5t-169 -10.5q-138 1 -267.5 61 t-224.5 160t-152.5 239t-57.5 290zM485 705q0 -121 86.5 -207t208.5 -86q120 0 206.5 86t86.5 207t-86.5 206.5t-206.5 85.5q-122 0 -208.5 -85.5t-86.5 -206.5z" />
<glyph unicode="A" d="M125 0v717q0 150 58 286.5t157 235.5t235.5 157t286.5 58t286.5 -58t235.5 -157t157 -235.5t58 -286.5v-717h-106v715q0 128 -50 245t-134.5 201.5t-201.5 134.5t-245 50t-245 -50t-201.5 -134.5t-134.5 -201.5t-50 -245v-715h-106zM389 668v96h946v-96h-946z" />
<glyph unicode="B" horiz-adv-x="1257" d="M160 0v1434h362q533 0 533 -394q0 -86 -38.5 -158t-131.5 -141q159 -55 226 -143t67 -219q0 -79 -28.5 -145t-89 -120t-166.5 -84t-249 -30h-485zM268 106h375q204 0 309 73.5t105 191.5q0 48 -9 87.5t-23 69t-40 52t-50.5 37.5t-65.5 25.5t-73 16.5t-84.5 9t-90.5 3.5 t-99 0.5h-254v-566zM268 768h252q205 0 309.5 73t104.5 193q0 85 -28.5 143.5t-85.5 90.5t-129 45.5t-171 13.5h-252v-559z" />
<glyph unicode="C" horiz-adv-x="1236" d="M84 717q0 200 99.5 365t270 258.5t375.5 93.5h369v-107h-367q-130 0 -247.5 -46.5t-203.5 -127t-136.5 -194t-50.5 -242.5q0 -171 86 -312t232.5 -220t319.5 -79h367v-106h-369q-205 0 -375.5 93.5t-270 258.5t-99.5 365z" />
<glyph unicode="D" horiz-adv-x="1357" d="M160 0v1434h362q205 0 376 -93.5t270.5 -258.5t99.5 -365t-99.5 -365t-270.5 -258.5t-376 -93.5h-362zM266 106h254q173 0 320 79t234 220t87 312t-87 312t-234 219.5t-320 78.5h-254v-1221z" />
<glyph unicode="E" horiz-adv-x="1239" d="M84 717q0 200 99.5 365t270 258.5t375.5 93.5h369v-107h-367q-246 0 -424 -155t-210 -406h813v-94h-815q20 -168 110 -297.5t227.5 -199t298.5 -69.5h367v-106h-369q-205 0 -375.5 93.5t-270 258.5t-99.5 365z" />
<glyph unicode="F" horiz-adv-x="1249" d="M125 0v717q0 201 98 365.5t267.5 258t373.5 93.5h369v-107h-367q-161 0 -298 -69t-226.5 -197.5t-110.5 -294.5h813v-94h-813v-672h-106z" />
<glyph unicode="G" horiz-adv-x="1622" d="M86 707q0 200 98.5 367.5t268 263.5t370.5 96h394l-3 -107h-391q-171 0 -315.5 -81t-229.5 -223.5t-85 -313.5q0 -170 84 -313t228 -225.5t314 -82.5h4q140 1 258.5 47t199 125t126 184t47.5 224h-586v100h695v-131q0 -113 -40.5 -216t-111.5 -182t-164 -138t-202.5 -90 t-221.5 -31q-201 0 -370.5 96t-268 263.5t-98.5 367.5z" />
<glyph unicode="H" horiz-adv-x="1300" d="M123 0v1434h108v-668h801v668h109v-1434h-109v672h-801v-672h-108z" />
<glyph unicode="I" horiz-adv-x="589" d="M82 0v106h160v1221h-160v107h160h108h156v-107h-156v-1221h158v-106h-158h-108h-160z" />
<glyph unicode="J" horiz-adv-x="1243" d="M4 0v106h367q122 0 235 41t202 116t142.5 190.5t53.5 253.5v620h-267v107h375v-717q0 -201 -98 -365.5t-267.5 -258t-373.5 -93.5h-369z" />
<glyph unicode="K" horiz-adv-x="964" d="M59 0v1434h109v-1434h-109zM176 717l639 717h113l-637 -717l643 -717h-123z" />
<glyph unicode="L" horiz-adv-x="1245" d="M133 717v717h107v-646q0 -103 28.5 -203t84 -186t131.5 -152t177 -103.5t213 -37.5h367v-106h-369q-204 0 -373.5 93.5t-267.5 258t-98 365.5z" />
<glyph unicode="M" d="M125 0v717q0 150 58 286.5t157 235.5t235.5 157t286.5 58t286.5 -58t235.5 -157t157 -235.5t58 -286.5v-717h-106v715q0 240 -163 418.5t-417 212.5v-1346h-104v1346q-167 -23 -299 -112t-205.5 -225t-73.5 -294v-715h-106z" />
<glyph unicode="N" d="M125 0v717q0 150 58 286.5t157 235.5t235.5 157t286.5 58t286.5 -58t235.5 -157t157 -235.5t58 -286.5v-717h-106v715q0 128 -50 245t-134.5 201.5t-201.5 134.5t-245 50t-245 -50t-201.5 -134.5t-134.5 -201.5t-50 -245v-715h-106z" />
<glyph unicode="O" horiz-adv-x="1652" d="M86 717q0 150 58 286.5t157 235.5t235.5 157t286.5 58t287 -58t236.5 -157t158 -235.5t58.5 -286.5t-58.5 -286.5t-158 -235.5t-236.5 -157t-287 -58t-286.5 58t-235.5 157t-157 235.5t-58 286.5zM193 719q0 -171 84.5 -316.5t229.5 -230t316 -84.5q128 0 245 50 t201.5 134.5t134.5 201.5t50 245t-50 244.5t-134.5 201t-201.5 134t-245 49.5q-171 0 -316 -84t-229.5 -229t-84.5 -316z" />
<glyph unicode="P" horiz-adv-x="1124" d="M160 0v1434h368q535 0 535 -394q0 -79 -28.5 -143.5t-89.5 -116t-167 -80t-250 -28.5h-258v-672h-110zM270 768h256q205 0 310.5 73t105.5 193q0 85 -29 143.5t-86 90.5t-129.5 45.5t-171.5 13.5h-256v-559z" />
<glyph unicode="Q" horiz-adv-x="1652" d="M86 719q0 150 58 286.5t157 234.5t235.5 156t286.5 58t287 -58t236.5 -156t158 -234.5t58.5 -286.5q0 -216 -120.5 -394.5t-328.5 -277.5l154 -252h-107l-135 219q-129 -34 -203 -34q-200 0 -370 99.5t-268.5 269.5t-98.5 370zM193 721q0 -128 50 -244.5t134 -202 t201 -136t245 -50.5h19q66 0 125 21l-97 161h109l80 -131q182 83 288.5 238t106.5 344q0 128 -50 244.5t-134.5 200t-201.5 133t-245 49.5q-171 0 -316 -83.5t-229.5 -228t-84.5 -315.5z" />
<glyph unicode="R" horiz-adv-x="1138" d="M160 0v1434h366q535 0 535 -394q0 -335 -506 -368l475 -672h-129l-471 672h-162v-672h-108zM268 768h256q205 0 310.5 73t105.5 193q0 85 -29 143.5t-86 90.5t-129.5 45.5t-171.5 13.5h-256v-559z" />
<glyph unicode="S" horiz-adv-x="1011" d="M41 133l82 72q54 -54 139 -86.5t166 -32.5q76 0 148 20t131.5 58t96 99.5t36.5 137.5q0 112 -127 195q-23 15 -59 33.5t-62.5 30.5t-73 32t-61.5 27q-65 29 -109.5 52.5t-95 59.5t-80.5 73.5t-50 90t-20 113.5q0 64 25 124.5t71.5 110.5t123.5 80.5t172 30.5 q210 0 348 -154l-80 -69q-110 117 -268 117q-148 0 -215.5 -60.5t-67.5 -179.5q0 -57 27.5 -106t101.5 -101q25 -18 62.5 -38.5t64.5 -34t72 -34.5t59 -28q66 -32 109 -55.5t93.5 -58.5t79.5 -69t48.5 -79.5t19.5 -97.5q0 -124 -72.5 -223t-191 -151t-256.5 -52 q-108 0 -214 41.5t-173 111.5z" />
<glyph unicode="T" horiz-adv-x="1112" d="M18 1329v105h1076v-105h-484v-1329h-108v1329h-484z" />
<glyph unicode="U" horiz-adv-x="1742" d="M133 717v717h107v-715q0 -171 84.5 -316.5t229.5 -230t316 -84.5q128 0 245 50t201.5 134.5t134.5 201.5t50 245v715h107l2 -717v-4q0 -149 -59 -285t-158.5 -234t-236 -156t-286.5 -58t-286.5 58t-235.5 157t-157 235.5t-58 286.5z" />
<glyph unicode="V" horiz-adv-x="1484" d="M23 1434h112l608 -1229l611 1229h110l-721 -1454z" />
<glyph unicode="W" horiz-adv-x="2140" d="M23 1434h110l602 -1229l281 581l-324 648h111l268 -539l268 539h109l-324 -646l281 -583l604 1229h109l-713 -1454l-336 700l-334 -700z" />
<glyph unicode="X" horiz-adv-x="1144" d="M45 0l479 715l-479 719h111l417 -623l420 623h109l-479 -719l475 -715h-109l-416 621l-415 -621h-113z" />
<glyph unicode="Y" horiz-adv-x="1114" d="M45 0l475 721l-475 713h121l418 -623l409 623h109l-944 -1434h-113z" />
<glyph unicode="Z" horiz-adv-x="1058" d="M25 0l391 670h-191v94h246l336 573h-737v97h909l-385 -670h182v-94h-235l-330 -574h825v-96h-1011z" />
<glyph unicode="[" horiz-adv-x="522" d="M160 -256v1690h311v-54h-188v-1583h188v-53h-311z" />
<glyph unicode="\" horiz-adv-x="665" d="M41 1434h109l485 -1434h-109z" />
<glyph unicode="]" horiz-adv-x="522" d="M51 -203h189v1583h-189v54h311v-1690h-311v53z" />
<glyph unicode="^" horiz-adv-x="765" d="M82 1004l301 411l301 -411l-22 -33l-279 356l-279 -356z" />
<glyph unicode="_" horiz-adv-x="901" d="M-10 -205h921v-102h-921v102z" />
<glyph unicode="`" horiz-adv-x="493" d="M94 1352l90 67l209 -307l-35 -27z" />
<glyph unicode="a" horiz-adv-x="1214" d="M102 461q0 131 64.5 241.5t175.5 175t242 64.5q187 0 372 -168v148h99v-942l-125 139q-157 -139 -346 -139q-131 0 -242 64.5t-175.5 175t-64.5 241.5zM211 461q0 -154 109.5 -263.5t263.5 -109.5t263 109.5t109 263.5t-109 263.5t-263 109.5t-263.5 -109.5 t-109.5 -263.5z" />
<glyph unicode="b" horiz-adv-x="1220" d="M152 -20v1454h108v-656q184 164 373 164q198 0 339.5 -142.5t141.5 -338.5q0 -97 -38 -185.5t-102.5 -153.5t-153.5 -103.5t-187 -38.5q-186 0 -346 135zM260 461q0 -153 110 -264t263 -111t263 111t110 264q0 152 -110 263.5t-263 111.5t-263 -111.5t-110 -263.5z" />
<glyph unicode="c" horiz-adv-x="970" d="M104 461q0 199 142.5 340t343.5 141q188 0 325 -121l-77 -78q-113 91 -248 91q-155 0 -266 -109.5t-111 -263.5t111 -263.5t266 -109.5q131 0 241 86l82 -74q-139 -120 -323 -120q-201 0 -343.5 141t-142.5 340z" />
<glyph unicode="d" horiz-adv-x="1222" d="M100 461q0 128 64.5 239t176 176.5t241.5 65.5q188 0 372 -164v656h109v-1454l-135 135q-160 -135 -346 -135q-131 0 -242 65t-175.5 176t-64.5 240zM209 461q0 -153 110 -264t263 -111t262.5 111t109.5 264q0 152 -109.5 263.5t-262.5 111.5t-263 -111.5t-110 -263.5z " />
<glyph unicode="e" horiz-adv-x="1024" d="M102 461q0 131 65 241.5t176.5 175t242.5 64.5q127 0 226.5 -62t160.5 -167l-684 -473q125 -152 297 -152q132 0 239 86l84 -74q-139 -120 -323 -120q-131 0 -242.5 64.5t-176.5 175t-65 241.5zM211 461q0 -52 31 -146l567 394q-63 125 -223 125q-155 0 -265 -109.5 t-110 -263.5z" />
<glyph unicode="f" horiz-adv-x="579" d="M66 815v107h167v59q0 176 121 311.5t299 161.5v-108q-131 -25 -219 -129t-88 -236v-59h168v-107h-168v-815h-113v815h-167z" />
<glyph unicode="g" horiz-adv-x="1222" d="M100 461q0 129 64.5 240t175.5 176t242 65q186 0 346 -135l135 135v-983q0 -96 -38.5 -183t-103 -150t-153.5 -100.5t-186 -37.5q-181 0 -314 117l86 65q102 -76 228 -76q152 0 262 108.5t110 256.5v188q-96 -86 -186 -124.5t-186 -38.5q-131 0 -242 64.5t-175.5 174.5 t-64.5 238zM209 461q0 -151 110 -261t263 -110t262.5 110t109.5 261q0 153 -109.5 264t-262.5 111t-263 -111t-110 -264z" />
<glyph unicode="h" horiz-adv-x="1247" d="M150 0v1434h108v-686q84 96 180.5 145t192.5 49q131 0 241.5 -63t175 -172t64.5 -238v-469h-108v469q0 152 -109.5 259.5t-263.5 107.5t-263.5 -107.5t-109.5 -259.5v-469h-108z" />
<glyph unicode="i" horiz-adv-x="428" d="M111 1247q0 46 30 76.5t76 30.5t76.5 -30.5t30.5 -76.5t-30.5 -76t-76.5 -30t-76 30t-30 76zM160 0v922h108v-922h-108z" />
<glyph unicode="j" horiz-adv-x="428" d="M111 1247q0 46 30 76.5t76 30.5t76.5 -30.5t30.5 -76.5t-30.5 -76t-76.5 -30t-76 30t-30 76zM160 -512v1434h108v-1434h-108z" />
<glyph unicode="k" horiz-adv-x="980" d="M133 0v1434h109v-930l528 418h129l-362 -297l391 -625h-125l-352 555l-209 -166v-389h-109z" />
<glyph unicode="l" horiz-adv-x="428" d="M160 0v1434h108v-1434h-108z" />
<glyph unicode="m" horiz-adv-x="2062" d="M152 0v922h104v-179q172 199 365 199q131 0 241 -68.5t185 -201.5q40 68 95.5 125.5t140 101t173.5 43.5q128 0 236 -64.5t170.5 -175t62.5 -241.5v-461h-104v461q0 154 -107 263.5t-258 109.5t-258.5 -109.5t-107.5 -263.5v-461h-105v461q0 154 -106.5 263.5 t-257.5 109.5t-258 -109.5t-107 -263.5v-461h-104z" />
<glyph unicode="n" horiz-adv-x="1251" d="M152 0v922h108v-179q85 98 181.5 148.5t191.5 50.5q199 0 340 -141t141 -340v-461h-108v461q0 154 -109.5 263.5t-263.5 109.5t-263.5 -109.5t-109.5 -263.5v-461h-108z" />
<glyph unicode="o" horiz-adv-x="1173" d="M102 461q0 131 64.5 241.5t175.5 175t242 64.5t241.5 -64.5t175 -175t64.5 -241.5t-64.5 -241.5t-175 -175t-241.5 -64.5t-242 64.5t-175.5 175t-64.5 241.5zM211 461q0 -154 109.5 -263.5t263.5 -109.5t263 109.5t109 263.5t-109 263.5t-263 109.5t-263.5 -109.5 t-109.5 -263.5z" />
<glyph unicode="p" horiz-adv-x="1226" d="M158 -512v1454l135 -135q160 135 346 135q131 0 241.5 -63t175 -172t64.5 -238q0 -195 -141 -333t-340 -138q-189 0 -373 164v-674h-108zM266 469q0 -151 109.5 -258t263.5 -107t263.5 107t109.5 258q0 152 -109.5 259.5t-263.5 107.5t-263.5 -107.5t-109.5 -259.5z" />
<glyph unicode="q" horiz-adv-x="1222" d="M100 469q0 129 64.5 238t175.5 172t242 63q186 0 346 -135l135 135v-1454h-109v674q-184 -164 -372 -164q-131 0 -242 63t-175.5 171.5t-64.5 236.5zM209 469q0 -151 109.5 -258t263.5 -107t263 107t109 258q0 152 -109 259.5t-263 107.5t-263.5 -107.5t-109.5 -259.5z " />
<glyph unicode="r" horiz-adv-x="692" d="M152 0v922h114v-179q171 186 371 199l-2 -108q-160 0 -264.5 -108.5t-104.5 -264.5v-461h-114z" />
<glyph unicode="s" horiz-adv-x="751" d="M72 94l80 70q82 -78 170 -78q56 0 107.5 18t88.5 59t37 97q-1 32 -14 58t-38 44.5t-47 30.5t-55 25q-28 11 -79 33q-45 20 -75 38t-63 48t-50 73t-17 99q0 93 68.5 163t189.5 70q138 0 227 -115l-70 -59q-60 66 -157 66q-83 0 -118.5 -35t-35.5 -101q0 -30 12.5 -54 t39.5 -43t47 -29.5t55 -26.5q34 -13 80 -33q46 -19 78.5 -38.5t62.5 -48.5t45.5 -70.5t15.5 -94.5q0 -125 -98 -202.5t-237 -77.5q-70 0 -138 30.5t-112 83.5z" />
<glyph unicode="t" horiz-adv-x="587" d="M63 815v107h173v256h116v-256h172v-107h-172v-815h-116v815h-173z" />
<glyph unicode="u" horiz-adv-x="1261" d="M139 461v461h109v-461q0 -154 109.5 -263.5t263.5 -109.5t263 109.5t109 263.5v461h109v-942l-139 163q-63 -74 -156 -118.5t-186 -44.5q-131 0 -242 64.5t-175.5 175t-64.5 241.5z" />
<glyph unicode="v" horiz-adv-x="1087" d="M47 922h107l393 -832l395 832h100l-426 -922h-137z" />
<glyph unicode="w" horiz-adv-x="1968" d="M47 922h107l383 -832l387 832h125l389 -832l385 832h98l-416 -922h-133l-383 834l-385 -834h-133z" />
<glyph unicode="x" horiz-adv-x="974" d="M57 922h117l313 -390l316 390h115l-365 -469l358 -453h-127l-297 375l-294 -375h-127l358 453z" />
<glyph unicode="y" horiz-adv-x="1087" d="M45 922h109l395 -813l393 813h102l-684 -1434h-118l250 512z" />
<glyph unicode="z" horiz-adv-x="995" d="M55 0l668 823h-664v99h850l-651 -824h690v-98h-893z" />
<glyph unicode="{" horiz-adv-x="567" d="M41 410v104q101 24 139.5 94.5t38.5 216.5v359q0 123 58 186.5t163 63.5h78v-84h-6q-96 0 -134 -37.5t-38 -130.5v-389q0 -142 -47.5 -209.5t-186.5 -118.5q131 -56 182.5 -131.5t51.5 -202.5v-391q0 -93 38 -130.5t134 -37.5h6v-84h-78q-105 0 -163 63.5t-58 186.5v360 q0 145 -39 216.5t-139 95.5z" />
<glyph unicode="|" horiz-adv-x="473" d="M160 -256v1690h153v-1690h-153z" />
<glyph unicode="}" horiz-adv-x="565" d="M47 -428h6q96 0 134 37.5t38 130.5v391q0 127 51.5 202.5t182.5 131.5q-139 51 -186.5 118.5t-47.5 209.5v389q0 93 -38 130.5t-134 37.5h-6v84h78q105 0 163 -63.5t58 -186.5v-359q0 -146 38.5 -216.5t139.5 -94.5v-104q-100 -24 -139 -95.5t-39 -216.5v-360 q0 -123 -58 -186.5t-163 -63.5h-78v84z" />
<glyph unicode="~" horiz-adv-x="1208" d="M96 571q111 179 271 179q66 0 121 -20t118 -56q7 -4 28 -16.5t29.5 -17.5t27 -15t30 -14.5t28 -10.5t32 -8t30.5 -2q69 0 116 31.5t113 121.5l50 -49q-92 -182 -277 -182q-43 0 -84 11.5t-66 25t-65 37.5q-91 52 -102 57q-71 29 -129 29h-15q-58 0 -99 -30.5t-106 -117.5 z" />
<glyph unicode="&#xa1;" horiz-adv-x="454" d="M143 858q0 34 24 58t58 24q35 0 59.5 -24t24.5 -58t-24.5 -57t-59.5 -23q-34 0 -58 23t-24 57zM158 496h135v-1008h-135v1008z" />
<glyph unicode="&#xa2;" horiz-adv-x="940" d="M76 461q0 196 142 334.5t343 138.5q33 0 72 -4l67 196h107l-76 -219q99 -41 156 -92l-78 -78q-43 37 -115 72l-245 -694q62 -21 112 -21q134 0 242 84l82 -72q-137 -118 -324 -118q-62 0 -149 22l-78 -215h-105l90 256q-117 69 -180 175.5t-63 234.5zM184 461 q0 -171 172 -309l240 677q-179 -4 -295.5 -110.5t-116.5 -257.5z" />
<glyph unicode="&#xa3;" horiz-adv-x="1331" d="M35 797v106h190v531h547l-57 -107h-383v-424h373v-106h-373q1 -108 30.5 -210.5t85 -189t131 -152t174 -102.5t208.5 -37h364v-106h-367q-152 0 -287.5 55t-233.5 150t-155 228.5t-57 283.5v80h-190z" />
<glyph unicode="&#xa4;" horiz-adv-x="952" d="M113 362l98 105q-51 81 -51 164q0 76 53 166l-98 102l98 96l100 -100q77 43 158 43q85 0 164 -47l102 102l99 -96l-105 -106q45 -83 45 -160q0 -74 -41 -160l109 -109l-96 -98l-109 107q-81 -52 -172 -52q-80 0 -162 46l-94 -99zM217 631q0 -106 73 -182t177 -76t176 76 t72 182q0 105 -73 180.5t-175 75.5q-104 0 -177 -75.5t-73 -180.5z" />
<glyph unicode="&#xa5;" horiz-adv-x="1097" d="M20 1434h121l418 -623l410 623h108l-467 -707v-90h279v-107h-279v-233h279v-107h-279v-190h-123l2 190h-256v107h256v233h-256v107h256v92z" />
<glyph unicode="&#xa6;" horiz-adv-x="464" d="M156 -256v541l153 69v-610h-153zM156 770v664h153v-594z" />
<glyph unicode="&#xa7;" horiz-adv-x="837" d="M102 719q0 73 29 140.5t88 109.5q-50 30 -76.5 64t-33.5 63t-7 71q0 125 82.5 197t253.5 72h215l-30 -109h-193q-219 0 -219 -158q0 -37 18.5 -64.5t53 -45t63 -26t68.5 -17.5q19 -4 88 -19q109 -28 171 -110t62 -195q0 -68 -30 -130.5t-91 -98.5q66 -51 93.5 -101.5 t27.5 -119.5q0 -118 -91 -181t-267 -63h-252l29 108h229q60 0 110 11.5t87.5 43.5t37.5 81v6q0 84 -86 131q-47 25 -163 47q-143 30 -205 102t-62 191zM195 719q0 -86 65.5 -146.5t157.5 -60.5t157.5 60.5t65.5 146.5t-65.5 146.5t-157.5 60.5t-157.5 -60.5t-65.5 -146.5z " />
<glyph unicode="&#xa8;" horiz-adv-x="839" d="M129 1235q0 40 28.5 68t69.5 28t70 -28t29 -68t-29 -68t-70 -28t-69.5 28t-28.5 68zM502 1235q0 40 28.5 68t69.5 28t69.5 -28t28.5 -68t-28.5 -68t-69.5 -28t-69.5 28t-28.5 68z" />
<glyph unicode="&#xa9;" horiz-adv-x="1138" d="M94 958q0 134 64 248.5t172.5 181t234.5 66.5t234.5 -66t172.5 -180t64 -247q0 -206 -140 -350t-337 -144q-188 0 -326.5 145t-138.5 346zM176 958q0 -168 114.5 -290.5t268.5 -122.5q163 0 278 121t115 295q0 170 -115 291.5t-272 121.5q-159 0 -274 -122.5t-115 -293.5 zM289 965q0 119 79.5 201.5t198.5 82.5q121 0 203 -82l-65 -65q-60 57 -138 57q-81 0 -137.5 -57t-56.5 -137t56.5 -137.5t137.5 -57.5q77 0 133 53l70 -59q-86 -86 -203 -86q-119 0 -198.5 83.5t-79.5 203.5z" />
<glyph unicode="&#xaa;" horiz-adv-x="890" d="M113 1143q0 129 92.5 220t224.5 91q63 0 124 -28.5t138 -94.5v111h47v-604l-75 90q-105 -94 -234 -94q-132 0 -224.5 90t-92.5 219zM135 618v46h574v-46h-574zM166 1143q0 -106 77.5 -182t186.5 -76q108 0 185 76t77 182t-77 182t-185 76q-109 0 -186.5 -76t-77.5 -182z " />
<glyph unicode="&#xab;" horiz-adv-x="862" d="M78 438v31l299 299l-168 -309l168 -281zM457 438v31l299 299l-166 -309l168 -281z" />
<glyph unicode="&#xac;" horiz-adv-x="1138" d="M63 586v114h916v-493l-109 -2v381h-807z" />
<glyph unicode="&#xad;" horiz-adv-x="933" d="M160 645v143h614v-143h-614z" />
<glyph unicode="&#xae;" horiz-adv-x="1144" d="M100 958q0 134 64 248.5t172.5 181t234.5 66.5t234.5 -66t172.5 -180t64 -247q0 -206 -140 -350t-337 -144q-188 0 -326.5 145t-138.5 346zM182 958q0 -168 114.5 -290.5t268.5 -122.5q163 0 278 121t115 295q0 170 -115 291.5t-272 121.5q-159 0 -274 -122.5 t-115 -293.5zM395 678v571h170q223 0 223 -172q0 -65 -44 -107t-138 -48l178 -244h-92l-176 237h-29v-237h-92zM487 995h76h6q65 0 96 23.5t31 58.5q-3 46 -32 67t-101 21h-76v-170z" />
<glyph unicode="&#xaf;" horiz-adv-x="1036" d="M160 1176v153h717v-153h-717z" />
<glyph unicode="&#xb0;" horiz-adv-x="800" d="M113 1169q0 118 83.5 201.5t202.5 83.5q117 0 200 -84t83 -201q0 -121 -83.5 -203.5t-203.5 -82.5q-117 0 -199.5 83.5t-82.5 202.5zM174 1169q0 -92 65.5 -158.5t155.5 -66.5q94 0 160 65.5t66 159.5q0 91 -65.5 156.5t-156.5 65.5q-93 0 -159 -65t-66 -157z" />
<glyph unicode="&#xb1;" horiz-adv-x="1052" d="M66 0v109h921v-109h-921zM66 510v108h407v406h109v-406h405v-108h-405v-295h-109v295h-407z" />
<glyph unicode="&#xb2;" horiz-adv-x="622" d="M80 727q11 206 235 348q7 5 31 21.5t31.5 22.5t24 21t22 26.5t11 29.5t5.5 39v4q0 71 -40.5 110.5t-114.5 39.5q-76 0 -133 -54l-41 39q70 80 174 80t163.5 -57t59.5 -158q0 -68 -41 -112.5t-123 -94.5q-187 -117 -190 -254h350l14 -51h-438z" />
<glyph unicode="&#xb3;" horiz-adv-x="557" d="M53 774l43 37q47 -33 111 -33q73 0 125.5 50.5t52.5 121.5q0 72 -52.5 121t-125.5 49h-47v58h45q45 0 73.5 36.5t32.5 77.5q-3 43 -29.5 73t-74.5 30h-4q-39 0 -78 -31l-33 35q50 50 113 55q81 0 125.5 -46.5t44.5 -115.5q0 -72 -90 -139q85 -41 123 -89.5t38 -113.5 q0 -99 -70 -167t-169 -68q-89 0 -154 59z" />
<glyph unicode="&#xb4;" horiz-adv-x="477" d="M84 1112l209 307l90 -67l-264 -267z" />
<glyph unicode="&#xb5;" horiz-adv-x="1239" d="M160 -512v1434h108v-451q0 -154 110.5 -269.5t262.5 -115.5t262.5 115.5t110.5 269.5v451h108v-942l-139 180q-67 -78 -159.5 -129t-182.5 -51q-92 0 -180.5 46t-190.5 140q0 -433 97 -580l-82 -98h-125z" />
<glyph unicode="&#xb6;" horiz-adv-x="1157" d="M61 1051q0 198 100 290.5t281 92.5h555v-1639h-110v1530h-238v-1530h-110v871h-97q-381 0 -381 385z" />
<glyph unicode="&#xb7;" horiz-adv-x="464" d="M117 717q0 43 29.5 73.5t72.5 30.5t74 -30.5t31 -73.5t-31 -73t-74 -30t-72.5 30t-29.5 73z" />
<glyph unicode="&#xb8;" horiz-adv-x="595" d="M51 -432l19 55q58 -67 163 -67q77 0 123.5 46t46.5 122t-46.5 123t-123.5 47h-49h-6l47 108h35l-22 -53q118 -18 178.5 -77.5t60.5 -147.5q0 -98 -72 -167t-172 -69q-112 0 -182 80z" />
<glyph unicode="&#xb9;" horiz-adv-x="385" d="M98 1374l60 80h67v-717h-53v637h-74z" />
<glyph unicode="&#xba;" horiz-adv-x="866" d="M113 1143q0 129 92.5 220t224.5 91q131 0 224.5 -91t93.5 -220q0 -128 -93.5 -217.5t-224.5 -89.5q-132 0 -224.5 89t-92.5 218zM139 616v46h574v-46h-574zM166 1143q0 -106 77.5 -182t186.5 -76q108 0 185 76t77 182t-77 182t-185 76q-109 0 -186.5 -76t-77.5 -182z" />
<glyph unicode="&#xbb;" horiz-adv-x="837" d="M80 178l168 281l-166 309l299 -299v-31zM461 178l168 281l-168 309l299 -299v-31z" />
<glyph unicode="&#xbc;" horiz-adv-x="1353" d="M59 0l895 1434h76l-895 -1434h-76zM94 1378l41 76h58v-690h-48v614h-51zM872 324v366h50v-321h254v321h49v-321h100v-45h-100v-324h-49v324h-304z" />
<glyph unicode="&#xbd;" horiz-adv-x="1263" d="M61 0l900 1434h75l-897 -1434h-78zM96 1378l41 76h58v-690h-48v614h-51zM803 0q3 50 15.5 93.5t25 70t41 57.5t41 42t50 38.5t44.5 32.5t26 18t25.5 18t20.5 17t19.5 20.5t13 21.5t10 27.5t2.5 32.5v5q0 68 -37.5 105.5t-106.5 37.5q-71 0 -123 -49l-39 35q64 77 162 77 q96 0 151.5 -55t55.5 -151q0 -35 -11 -64.5t-34.5 -53.5t-46 -41t-59.5 -40q-5 -3 -28 -18t-29.5 -20t-26 -19t-26 -22t-21 -23.5t-20 -29t-13.5 -32t-10.5 -39t-2.5 -43.5h322l14 -49h-405z" />
<glyph unicode="&#xbe;" horiz-adv-x="1431" d="M27 799l39 35q39 -31 98 -31q68 0 116 48.5t48 117.5t-48.5 115t-115.5 46h-41v56h39q41 0 67.5 36.5t28.5 75.5q-2 41 -27.5 70t-68.5 29q-37 -3 -70 -29l-33 33q48 48 105 53q72 0 111.5 -45.5t39.5 -110.5q0 -69 -79 -135q77 -39 112 -85.5t35 -108.5q0 -96 -64 -162 t-155 -66q-76 0 -137 58zM139 0l893 1434h76l-893 -1434h-76zM952 324v366h49v-321h252v321h50v-321h100v-45h-100v-324h-50v324h-301z" />
<glyph unicode="&#xbf;" horiz-adv-x="903" d="M80 -39q0 177 122 309t314 160v88h111v-194q-18 2 -62 2q-155 0 -266 -107t-111 -258q0 -152 110.5 -259.5t266.5 -107.5q139 0 248 91l78 -78q-135 -119 -326 -119q-201 0 -343 138.5t-142 334.5zM494 862q0 34 24.5 57t59.5 23q34 0 57.5 -23t23.5 -57t-23.5 -58 t-57.5 -24q-35 0 -59.5 24t-24.5 58z" />
<glyph unicode="&#xc0;" d="M125 0v717q0 150 58 286.5t157 235.5t235.5 157t286.5 58t286.5 -58t235.5 -157t157 -235.5t58 -286.5v-717h-106v715q0 128 -50 245t-134.5 201.5t-201.5 134.5t-245 50t-245 -50t-201.5 -134.5t-134.5 -201.5t-50 -245v-715h-106zM389 668v96h946v-96h-946zM713 1804 l90 68l209 -307l-35 -27z" />
<glyph unicode="&#xc1;" d="M125 0v717q0 150 58 286.5t157 235.5t235.5 157t286.5 58t286.5 -58t235.5 -157t157 -235.5t58 -286.5v-717h-106v715q0 128 -50 245t-134.5 201.5t-201.5 134.5t-245 50t-245 -50t-201.5 -134.5t-134.5 -201.5t-50 -245v-715h-106zM389 668v96h946v-96h-946zM713 1565 l209 307l90 -68l-264 -266z" />
<glyph unicode="&#xc2;" d="M125 0v717q0 150 58 286.5t157 235.5t235.5 157t286.5 58t286.5 -58t235.5 -157t157 -235.5t58 -286.5v-717h-106v715q0 128 -50 245t-134.5 201.5t-201.5 134.5t-245 50t-245 -50t-201.5 -134.5t-134.5 -201.5t-50 -245v-715h-106zM389 668v96h946v-96h-946zM668 1565 l192 293l197 -293l-33 -27l-164 170l-160 -170z" />
<glyph unicode="&#xc3;" d="M125 0v717q0 150 58 286.5t157 235.5t235.5 157t286.5 58t286.5 -58t235.5 -157t157 -235.5t58 -286.5v-717h-106v715q0 128 -50 245t-134.5 201.5t-201.5 134.5t-245 50t-245 -50t-201.5 -134.5t-134.5 -201.5t-50 -245v-715h-106zM389 668v96h946v-96h-946zM510 1591 q48 81 76 115q54 60 119 63h8q67 0 135 -59q35 -30 50 -42.5t48 -30t58 -17.5h8h2q26 0 53 20t41 38t37 53l16 28l53 -41q-50 -80 -106 -129t-96 -51h-6q-65 0 -136 59q-96 85 -157 93q-48 -4 -78 -30t-62 -79l-20 -31z" />
<glyph unicode="&#xc4;" d="M125 0v717q0 150 58 286.5t157 235.5t235.5 157t286.5 58t286.5 -58t235.5 -157t157 -235.5t58 -286.5v-717h-106v715q0 128 -50 245t-134.5 201.5t-201.5 134.5t-245 50t-245 -50t-201.5 -134.5t-134.5 -201.5t-50 -245v-715h-106zM389 668v96h946v-96h-946zM578 1634 q0 40 28.5 68.5t69.5 28.5t69.5 -28.5t28.5 -68.5t-28.5 -68t-69.5 -28t-69.5 28t-28.5 68zM950 1634q0 40 29 68.5t70 28.5t69.5 -28.5t28.5 -68.5t-28.5 -68t-69.5 -28t-70 28t-29 68z" />
<glyph unicode="&#xc5;" d="M125 0v717q0 150 58 286.5t157 235.5t235.5 157t286.5 58t286.5 -58t235.5 -157t157 -235.5t58 -286.5v-717h-106v715q0 128 -50 245t-134.5 201.5t-201.5 134.5t-245 50t-245 -50t-201.5 -134.5t-134.5 -201.5t-50 -245v-715h-106zM389 668v96h946v-96h-946zM713 1739 q0 66 45 111.5t110 45.5q67 0 113.5 -45.5t46.5 -111.5t-46.5 -112t-113.5 -46q-65 0 -110 46t-45 112zM766 1739q0 -41 30 -71t72 -30q43 0 73 30t30 71t-30.5 71.5t-72.5 30.5t-72 -30t-30 -72z" />
<glyph unicode="&#xc7;" horiz-adv-x="1236" d="M84 723q0 198 99.5 361.5t270.5 256.5t375 93h369v-105h-367q-173 0 -319.5 -78.5t-232.5 -218.5t-86 -309q0 -170 86 -313t232.5 -225.5t319.5 -82.5h367v-102l-338 -2l-35 -84q98 0 153.5 -61t55.5 -148q0 -91 -65.5 -154t-157.5 -63q-103 0 -170 74l16 65 q69 -76 154 -76q71 0 113.5 42t42.5 112q0 71 -43 114.5t-113 43.5h-47h-4l59 137h-45q-123 3 -247.5 62.5t-222 155.5t-159 230t-61.5 275z" />
<glyph unicode="&#xc8;" horiz-adv-x="1239" d="M84 717q0 200 99.5 365t270 258.5t375.5 93.5h369v-107h-367q-246 0 -424 -155t-210 -406h813v-94h-815q20 -168 110 -297.5t227.5 -199t298.5 -69.5h367v-106h-369q-205 0 -375.5 93.5t-270 258.5t-99.5 365zM492 1804l90 68l209 -307l-35 -27z" />
<glyph unicode="&#xc9;" horiz-adv-x="1239" d="M84 717q0 200 99.5 365t270 258.5t375.5 93.5h369v-107h-367q-246 0 -424 -155t-210 -406h813v-94h-815q20 -168 110 -297.5t227.5 -199t298.5 -69.5h367v-106h-369q-205 0 -375.5 93.5t-270 258.5t-99.5 365zM645 1565l209 307l90 -68l-264 -266z" />
<glyph unicode="&#xca;" horiz-adv-x="1239" d="M84 717q0 200 99.5 365t270 258.5t375.5 93.5h369v-107h-367q-246 0 -424 -155t-210 -406h813v-94h-815q20 -168 110 -297.5t227.5 -199t298.5 -69.5h367v-106h-369q-205 0 -375.5 93.5t-270 258.5t-99.5 365zM557 1565l188 293l197 -293l-33 -27l-164 170l-155 -170z " />
<glyph unicode="&#xcb;" horiz-adv-x="1239" d="M84 717q0 200 99.5 365t270 258.5t375.5 93.5h369v-107h-367q-246 0 -424 -155t-210 -406h813v-94h-815q20 -168 110 -297.5t227.5 -199t298.5 -69.5h367v-106h-369q-205 0 -375.5 93.5t-270 258.5t-99.5 365zM434 1634q0 40 28.5 68.5t69.5 28.5t70 -28.5t29 -68.5 t-29 -68t-70 -28t-69.5 28t-28.5 68zM807 1634q0 40 28.5 68.5t69.5 28.5t70 -28.5t29 -68.5t-29 -68t-70 -28t-69.5 28t-28.5 68z" />
<glyph unicode="&#xcc;" horiz-adv-x="589" d="M82 0v106h160v1221h-160v107h160h108h156v-107h-156v-1221h158v-106h-158h-108h-160zM145 1804l91 68l208 -307l-34 -27z" />
<glyph unicode="&#xcd;" horiz-adv-x="589" d="M82 0v106h160v1221h-160v107h160h108h156v-107h-156v-1221h158v-106h-158h-108h-160zM145 1565l209 307l90 -68l-264 -266z" />
<glyph unicode="&#xce;" horiz-adv-x="589" d="M82 0v106h160v1221h-160v107h160h108h156v-107h-156v-1221h158v-106h-158h-108h-160zM102 1565l189 293l196 -293l-32 -27l-164 170l-156 -170z" />
<glyph unicode="&#xcf;" horiz-adv-x="589" d="M10 1634q0 40 29 68.5t70 28.5t69.5 -28.5t28.5 -68.5t-28.5 -68t-69.5 -28t-70 28t-29 68zM82 0v106h160v1221h-160v107h160h108h156v-107h-156v-1221h158v-106h-158h-108h-160zM383 1634q0 40 28.5 68.5t69.5 28.5t70 -28.5t29 -68.5t-29 -68t-70 -28t-69.5 28 t-28.5 68z" />
<glyph unicode="&#xd0;" horiz-adv-x="1376" d="M74 670v94h106v670h363q204 0 374 -93.5t269.5 -258.5t99.5 -365t-99.5 -365t-269.5 -258.5t-374 -93.5h-363v670h-106zM289 106h252q173 0 319.5 79t233 220t86.5 312t-86.5 312t-233 219.5t-319.5 78.5h-252v-563h356v-94h-356v-564z" />
<glyph unicode="&#xd1;" d="M125 0v717q0 150 58 286.5t157 235.5t235.5 157t286.5 58t286.5 -58t235.5 -157t157 -235.5t58 -286.5v-717h-106v715q0 128 -50 245t-134.5 201.5t-201.5 134.5t-245 50t-245 -50t-201.5 -134.5t-134.5 -201.5t-50 -245v-715h-106zM510 1591q48 81 76 115q54 60 119 63 h8q67 0 135 -59q35 -30 50 -42.5t48 -30t58 -17.5h8h2q26 0 53 20t41 38t37 53l16 28l53 -41q-50 -80 -106 -129t-96 -51h-6q-65 0 -136 59q-96 85 -157 93q-48 -4 -78 -30t-62 -79l-20 -31z" />
<glyph unicode="&#xd2;" horiz-adv-x="1652" d="M86 717q0 150 58 286.5t157 235.5t235.5 157t286.5 58t287 -58t236.5 -157t158 -235.5t58.5 -286.5t-58.5 -286.5t-158 -235.5t-236.5 -157t-287 -58t-286.5 58t-235.5 157t-157 235.5t-58 286.5zM193 719q0 -171 84.5 -316.5t229.5 -230t316 -84.5q128 0 245 50 t201.5 134.5t134.5 201.5t50 245t-50 244.5t-134.5 201t-201.5 134t-245 49.5q-171 0 -316 -84t-229.5 -229t-84.5 -316zM676 1804l90 68l209 -307l-37 -27z" />
<glyph unicode="&#xd3;" horiz-adv-x="1652" d="M86 717q0 150 58 286.5t157 235.5t235.5 157t286.5 58t287 -58t236.5 -157t158 -235.5t58.5 -286.5t-58.5 -286.5t-158 -235.5t-236.5 -157t-287 -58t-286.5 58t-235.5 157t-157 235.5t-58 286.5zM193 719q0 -171 84.5 -316.5t229.5 -230t316 -84.5q128 0 245 50 t201.5 134.5t134.5 201.5t50 245t-50 244.5t-134.5 201t-201.5 134t-245 49.5q-171 0 -316 -84t-229.5 -229t-84.5 -316zM676 1565l209 307l90 -68l-266 -266z" />
<glyph unicode="&#xd4;" horiz-adv-x="1652" d="M86 717q0 150 58 286.5t157 235.5t235.5 157t286.5 58t287 -58t236.5 -157t158 -235.5t58.5 -286.5t-58.5 -286.5t-158 -235.5t-236.5 -157t-287 -58t-286.5 58t-235.5 157t-157 235.5t-58 286.5zM193 719q0 -171 84.5 -316.5t229.5 -230t316 -84.5q128 0 245 50 t201.5 134.5t134.5 201.5t50 245t-50 244.5t-134.5 201t-201.5 134t-245 49.5q-171 0 -316 -84t-229.5 -229t-84.5 -316zM631 1565l190 293l197 -293l-33 -27l-164 170l-157 -170z" />
<glyph unicode="&#xd5;" horiz-adv-x="1652" d="M86 717q0 150 58 286.5t157 235.5t235.5 157t286.5 58t287 -58t236.5 -157t158 -235.5t58.5 -286.5t-58.5 -286.5t-158 -235.5t-236.5 -157t-287 -58t-286.5 58t-235.5 157t-157 235.5t-58 286.5zM193 719q0 -171 84.5 -316.5t229.5 -230t316 -84.5q128 0 245 50 t201.5 134.5t134.5 201.5t50 245t-50 244.5t-134.5 201t-201.5 134t-245 49.5q-171 0 -316 -84t-229.5 -229t-84.5 -316zM471 1591q59 92 78 115q54 60 119 63h6q69 0 137 -59q100 -90 154 -90h10h2q37 0 67.5 30.5t61.5 80.5l16 28l54 -41q-48 -79 -104.5 -128.5 t-96.5 -51.5h-8q-65 0 -136 59q-96 85 -155 93q-48 -4 -77.5 -30t-61.5 -79l-21 -31z" />
<glyph unicode="&#xd6;" horiz-adv-x="1652" d="M86 717q0 150 58 286.5t157 235.5t235.5 157t286.5 58t287 -58t236.5 -157t158 -235.5t58.5 -286.5t-58.5 -286.5t-158 -235.5t-236.5 -157t-287 -58t-286.5 58t-235.5 157t-157 235.5t-58 286.5zM193 719q0 -171 84.5 -316.5t229.5 -230t316 -84.5q128 0 245 50 t201.5 134.5t134.5 201.5t50 245t-50 244.5t-134.5 201t-201.5 134t-245 49.5q-171 0 -316 -84t-229.5 -229t-84.5 -316zM541 1634q0 40 28 68.5t70 28.5q40 0 69 -28.5t29 -68.5t-29 -68t-69 -28q-42 0 -70 28t-28 68zM913 1634q0 40 28.5 68.5t70.5 28.5q40 0 69 -28.5 t29 -68.5t-29 -68t-69 -28q-42 0 -70.5 28t-28.5 68z" />
<glyph unicode="&#xd7;" horiz-adv-x="917" d="M88 752l76 75l293 -290l293 290l75 -75l-290 -293l288 -291l-75 -76l-291 289l-291 -289l-76 76l289 291z" />
<glyph unicode="&#xd8;" horiz-adv-x="1656" d="M88 717q0 150 58 286.5t157 235.5t235.5 157t286.5 58q218 0 412 -121l74 101h71l-96 -136q279 -245 279 -581q0 -150 -58.5 -286.5t-158 -235.5t-236.5 -157t-287 -58q-205 0 -403 122l-74 -102h-74l99 135q-138 115 -211.5 264t-73.5 318zM195 719q0 -286 239 -496 l742 1024q-177 101 -351 101q-171 0 -316 -84t-229.5 -229t-84.5 -316zM483 188q170 -100 342 -100q128 0 245 50t201.5 134.5t134.5 201.5t50 245q0 287 -231 493z" />
<glyph unicode="&#xd9;" horiz-adv-x="1742" d="M133 717v717h107v-715q0 -171 84.5 -316.5t229.5 -230t316 -84.5q128 0 245 50t201.5 134.5t134.5 201.5t50 245v715h107l2 -717v-4q0 -149 -59 -285t-158.5 -234t-236 -156t-286.5 -58t-286.5 58t-235.5 157t-157 235.5t-58 286.5zM723 1804l90 68l209 -307l-35 -27z " />
<glyph unicode="&#xda;" horiz-adv-x="1742" d="M133 717v717h107v-715q0 -171 84.5 -316.5t229.5 -230t316 -84.5q128 0 245 50t201.5 134.5t134.5 201.5t50 245v715h107l2 -717v-4q0 -149 -59 -285t-158.5 -234t-236 -156t-286.5 -58t-286.5 58t-235.5 157t-157 235.5t-58 286.5zM723 1565l209 307l90 -68l-264 -266z " />
<glyph unicode="&#xdb;" horiz-adv-x="1742" d="M133 717v717h107v-715q0 -171 84.5 -316.5t229.5 -230t316 -84.5q128 0 245 50t201.5 134.5t134.5 201.5t50 245v715h107l2 -717v-4q0 -149 -59 -285t-158.5 -234t-236 -156t-286.5 -58t-286.5 58t-235.5 157t-157 235.5t-58 286.5zM678 1565l190 293l197 -293l-33 -27 l-164 170l-157 -170z" />
<glyph unicode="&#xdc;" horiz-adv-x="1742" d="M133 717v717h107v-715q0 -171 84.5 -316.5t229.5 -230t316 -84.5q128 0 245 50t201.5 134.5t134.5 201.5t50 245v715h107l2 -717v-4q0 -149 -59 -285t-158.5 -234t-236 -156t-286.5 -58t-286.5 58t-235.5 157t-157 235.5t-58 286.5zM588 1634q0 40 28.5 68.5t69.5 28.5 t69.5 -28.5t28.5 -68.5t-28.5 -68t-69.5 -28t-69.5 28t-28.5 68zM961 1634q0 40 28.5 68.5t69.5 28.5t69.5 -28.5t28.5 -68.5t-28.5 -68t-69.5 -28t-69.5 28t-28.5 68z" />
<glyph unicode="&#xdd;" horiz-adv-x="1114" d="M45 0l475 721l-475 713h121l418 -623l409 623h109l-944 -1434h-113zM424 1565l209 307l90 -68l-264 -266z" />
<glyph unicode="&#xde;" horiz-adv-x="1105" d="M143 0v1434h113v-299h254q534 0 534 -396q0 -79 -28.5 -143t-89 -116t-166.5 -80.5t-250 -28.5h-258v-371h-109zM252 469h256q206 0 311 72.5t105 193.5q0 85 -29 143.5t-86 90.5t-129.5 45.5t-171.5 13.5h-256v-559z" />
<glyph unicode="&#xdf;" horiz-adv-x="1280" d="M160 0v975q0 119 36.5 212.5t99.5 150.5t142 86.5t168 29.5h4q202 -3 323.5 -116.5t121.5 -284.5v-13q-2 -87 -40 -158.5t-130 -140.5q159 -55 226 -143t67 -219q0 -79 -28.5 -145t-89 -120t-166.5 -84t-249 -30h-102v106h100q204 0 309 73.5t105 191.5q0 57 -12.5 102 t-33.5 76.5t-56 54t-72.5 35.5t-90.5 20.5t-102 10t-115 2.5h-32v96q193 4 292 78t99 190q0 43 -9 84t-32 83t-58 73.5t-93 51.5t-132 20q-147 0 -244.5 -108t-97.5 -298v-942h-108z" />
<glyph unicode="&#xe0;" horiz-adv-x="1214" d="M102 461q0 131 64.5 241.5t175.5 175t242 64.5q187 0 372 -168v148h99v-942l-125 139q-157 -139 -346 -139q-131 0 -242 64.5t-175.5 175t-64.5 241.5zM211 461q0 -154 109.5 -263.5t263.5 -109.5t263 109.5t109 263.5t-109 263.5t-263 109.5t-263.5 -109.5 t-109.5 -263.5zM430 1352l90 67l209 -307l-37 -27z" />
<glyph unicode="&#xe1;" horiz-adv-x="1214" d="M102 461q0 131 64.5 241.5t175.5 175t242 64.5q187 0 372 -168v148h99v-942l-125 139q-157 -139 -346 -139q-131 0 -242 64.5t-175.5 175t-64.5 241.5zM211 461q0 -154 109.5 -263.5t263.5 -109.5t263 109.5t109 263.5t-109 263.5t-263 109.5t-263.5 -109.5 t-109.5 -263.5zM430 1112l209 307l90 -67l-266 -267z" />
<glyph unicode="&#xe2;" horiz-adv-x="1214" d="M102 461q0 131 64.5 241.5t175.5 175t242 64.5q187 0 372 -168v148h99v-942l-125 139q-157 -139 -346 -139q-131 0 -242 64.5t-175.5 175t-64.5 241.5zM211 461q0 -154 109.5 -263.5t263.5 -109.5t263 109.5t109 263.5t-109 263.5t-263 109.5t-263.5 -109.5 t-109.5 -263.5zM385 1112l190 293l197 -293l-33 -27l-164 170l-157 -170z" />
<glyph unicode="&#xe3;" horiz-adv-x="1214" d="M102 461q0 131 64.5 241.5t175.5 175t242 64.5q187 0 372 -168v148h99v-942l-125 139q-157 -139 -346 -139q-131 0 -242 64.5t-175.5 175t-64.5 241.5zM211 461q0 -154 109.5 -263.5t263.5 -109.5t263 109.5t109 263.5t-109 263.5t-263 109.5t-263.5 -109.5 t-109.5 -263.5zM225 1139q56 88 78 114q55 61 119 64h6q68 0 137 -60q100 -90 154 -90h10h2q37 0 67.5 30.5t61.5 80.5l17 29l53 -41q-48 -80 -105 -129.5t-96 -51.5h-8q-63 0 -135 60q-95 83 -156 92q-48 -4 -77.5 -30t-61.5 -79l-21 -30z" />
<glyph unicode="&#xe4;" horiz-adv-x="1214" d="M102 461q0 131 64.5 241.5t175.5 175t242 64.5q187 0 372 -168v148h99v-942l-125 139q-157 -139 -346 -139q-131 0 -242 64.5t-175.5 175t-64.5 241.5zM211 461q0 -154 109.5 -263.5t263.5 -109.5t263 109.5t109 263.5t-109 263.5t-263 109.5t-263.5 -109.5 t-109.5 -263.5zM295 1182q0 40 28 68t70 28q40 0 69.5 -28.5t29.5 -67.5q0 -40 -29.5 -68.5t-69.5 -28.5q-42 0 -70 28.5t-28 68.5zM668 1182q0 40 28 68t70 28q40 0 69 -28t29 -68t-29 -68.5t-69 -28.5q-42 0 -70 28.5t-28 68.5z" />
<glyph unicode="&#xe5;" horiz-adv-x="1214" d="M102 461q0 131 64.5 241.5t175.5 175t242 64.5q187 0 372 -168v148h99v-942l-125 139q-157 -139 -346 -139q-131 0 -242 64.5t-175.5 175t-64.5 241.5zM211 461q0 -154 109.5 -263.5t263.5 -109.5t263 109.5t109 263.5t-109 263.5t-263 109.5t-263.5 -109.5 t-109.5 -263.5zM420 1243q0 66 46 112t112 46t112.5 -46t46.5 -112t-46.5 -112t-112.5 -46t-112 46t-46 112zM473 1243q0 -41 31 -70.5t74 -29.5q41 0 70.5 29.5t29.5 70.5q0 42 -29.5 72.5t-70.5 30.5q-43 0 -74 -31t-31 -72z" />
<glyph unicode="&#xe7;" horiz-adv-x="968" d="M102 469q0 196 142.5 334.5t343.5 138.5q190 0 325 -119l-77 -78q-109 91 -248 91q-156 0 -266.5 -107.5t-110.5 -259.5q0 -151 111 -258t266 -107q133 0 241 84l82 -71q-131 -113 -315 -121l-37 -78q101 0 159 -62t58 -149q0 -92 -66.5 -155.5t-160.5 -63.5 q-105 0 -172 74l16 65q29 -34 70.5 -55t85.5 -21q72 0 115 42.5t43 113.5t-43 114.5t-115 43.5q-1 0 -18 1t-29 1h-4l57 129q-201 28 -327 160.5t-126 312.5z" />
<glyph unicode="&#xe8;" horiz-adv-x="1024" d="M102 461q0 131 65 241.5t176.5 175t242.5 64.5q127 0 226.5 -62t160.5 -167l-684 -473q125 -152 297 -152q132 0 239 86l84 -74q-139 -120 -323 -120q-131 0 -242.5 64.5t-176.5 175t-65 241.5zM211 461q0 -52 31 -146l567 394q-63 125 -223 125q-155 0 -265 -109.5 t-110 -263.5zM389 1352l90 67l209 -307l-37 -27z" />
<glyph unicode="&#xe9;" horiz-adv-x="1024" d="M102 461q0 131 65 241.5t176.5 175t242.5 64.5q127 0 226.5 -62t160.5 -167l-684 -473q125 -152 297 -152q132 0 239 86l84 -74q-139 -120 -323 -120q-131 0 -242.5 64.5t-176.5 175t-65 241.5zM211 461q0 -52 31 -146l567 394q-63 125 -223 125q-155 0 -265 -109.5 t-110 -263.5zM389 1112l209 307l90 -67l-266 -267z" />
<glyph unicode="&#xea;" horiz-adv-x="1024" d="M102 461q0 131 65 241.5t176.5 175t242.5 64.5q127 0 226.5 -62t160.5 -167l-684 -473q125 -152 297 -152q132 0 239 86l84 -74q-139 -120 -323 -120q-131 0 -242.5 64.5t-176.5 175t-65 241.5zM211 461q0 -52 31 -146l567 394q-63 125 -223 125q-155 0 -265 -109.5 t-110 -263.5zM344 1112l191 293l196 -293l-33 -27l-163 170l-158 -170z" />
<glyph unicode="&#xeb;" horiz-adv-x="1024" d="M102 461q0 131 65 241.5t176.5 175t242.5 64.5q127 0 226.5 -62t160.5 -167l-684 -473q125 -152 297 -152q132 0 239 86l84 -74q-139 -120 -323 -120q-131 0 -242.5 64.5t-176.5 175t-65 241.5zM211 461q0 -52 31 -146l567 394q-63 125 -223 125q-155 0 -265 -109.5 t-110 -263.5zM254 1182q0 40 28 68t70 28q40 0 69.5 -28.5t29.5 -67.5q0 -40 -29.5 -68.5t-69.5 -28.5q-42 0 -70 28.5t-28 68.5zM627 1182q0 40 28 68t70 28q40 0 69 -28t29 -68t-29 -68.5t-69 -28.5q-42 0 -70 28.5t-28 68.5z" />
<glyph unicode="&#xec;" horiz-adv-x="428" d="M66 1352l90 67l209 -307l-37 -27zM160 0v922h108v-922h-108z" />
<glyph unicode="&#xed;" horiz-adv-x="428" d="M66 1112l208 307l91 -67l-267 -267zM160 0v922h108v-922h-108z" />
<glyph unicode="&#xee;" horiz-adv-x="428" d="M20 1112l191 293l197 -293l-33 -27l-164 170l-158 -170zM160 0v922h108v-922h-108z" />
<glyph unicode="&#xef;" horiz-adv-x="428" d="M-70 1182q0 40 28.5 68t70.5 28q40 0 69 -28t29 -68t-29 -68.5t-69 -28.5q-42 0 -70.5 28.5t-28.5 68.5zM160 0v922h108v-922h-108zM303 1182q0 40 28 68t70 28q40 0 69.5 -28.5t29.5 -67.5q0 -40 -29.5 -68.5t-69.5 -28.5q-42 0 -70 28.5t-28 68.5z" />
<glyph unicode="&#xf0;" horiz-adv-x="1171" d="M100 453q0 128 64.5 236.5t175.5 171.5t242 63q45 0 153 -23l-168 242l-135 -92l-61 86l133 92l-109 153l86 62l111 -156l135 92l61 -86l-135 -92q37 -52 95.5 -133t88.5 -122t65.5 -93.5t60.5 -93.5q100 -171 100 -307q0 -129 -64.5 -238t-175 -172t-241.5 -63t-242 63 t-175.5 172t-64.5 238zM209 453q0 -152 109.5 -259.5t263.5 -107.5t263 107.5t109 259.5q0 151 -109 257.5t-263 106.5t-263.5 -106.5t-109.5 -257.5z" />
<glyph unicode="&#xf1;" horiz-adv-x="1251" d="M152 0v922h108v-179q85 98 181.5 148.5t191.5 50.5q199 0 340 -141t141 -340v-461h-108v461q0 154 -109.5 263.5t-263.5 109.5t-263.5 -109.5t-109.5 -263.5v-461h-108zM281 1139q48 81 75 114q55 61 119 64h8q66 0 135 -60q35 -30 50 -42.5t48 -30t58 -17.5h8h2 q26 0 53 20t41 38t37 53l17 29l53 -41q-50 -81 -106.5 -130t-96.5 -51h-6q-63 0 -135 60q-95 83 -158 92q-48 -4 -77.5 -30t-61.5 -79l-20 -30z" />
<glyph unicode="&#xf2;" horiz-adv-x="1173" d="M102 461q0 131 64.5 241.5t175.5 175t242 64.5t241.5 -64.5t175 -175t64.5 -241.5t-64.5 -241.5t-175 -175t-241.5 -64.5t-242 64.5t-175.5 175t-64.5 241.5zM211 461q0 -154 109.5 -263.5t263.5 -109.5t263 109.5t109 263.5t-109 263.5t-263 109.5t-263.5 -109.5 t-109.5 -263.5zM434 1352l90 67l209 -307l-35 -27z" />
<glyph unicode="&#xf3;" horiz-adv-x="1173" d="M102 461q0 131 64.5 241.5t175.5 175t242 64.5t241.5 -64.5t175 -175t64.5 -241.5t-64.5 -241.5t-175 -175t-241.5 -64.5t-242 64.5t-175.5 175t-64.5 241.5zM211 461q0 -154 109.5 -263.5t263.5 -109.5t263 109.5t109 263.5t-109 263.5t-263 109.5t-263.5 -109.5 t-109.5 -263.5zM434 1112l209 307l90 -67l-264 -267z" />
<glyph unicode="&#xf4;" horiz-adv-x="1173" d="M102 461q0 131 64.5 241.5t175.5 175t242 64.5t241.5 -64.5t175 -175t64.5 -241.5t-64.5 -241.5t-175 -175t-241.5 -64.5t-242 64.5t-175.5 175t-64.5 241.5zM211 461q0 -154 109.5 -263.5t263.5 -109.5t263 109.5t109 263.5t-109 263.5t-263 109.5t-263.5 -109.5 t-109.5 -263.5zM389 1112l193 293l196 -293l-33 -27l-163 170l-160 -170z" />
<glyph unicode="&#xf5;" horiz-adv-x="1173" d="M102 461q0 131 64.5 241.5t175.5 175t242 64.5t241.5 -64.5t175 -175t64.5 -241.5t-64.5 -241.5t-175 -175t-241.5 -64.5t-242 64.5t-175.5 175t-64.5 241.5zM211 461q0 -154 109.5 -263.5t263.5 -109.5t263 109.5t109 263.5t-109 263.5t-263 109.5t-263.5 -109.5 t-109.5 -263.5zM231 1139q46 77 76 114q55 61 119 64h8q66 0 135 -60q35 -30 50 -42.5t48 -30t58 -17.5h8h2q26 0 53 20t41 38t37 53l17 29l53 -41q-50 -81 -106.5 -130t-96.5 -51h-6q-63 0 -135 60q-95 83 -158 92q-48 -4 -77.5 -30t-61.5 -79l-21 -30z" />
<glyph unicode="&#xf6;" horiz-adv-x="1173" d="M102 461q0 131 64.5 241.5t175.5 175t242 64.5t241.5 -64.5t175 -175t64.5 -241.5t-64.5 -241.5t-175 -175t-241.5 -64.5t-242 64.5t-175.5 175t-64.5 241.5zM211 461q0 -154 109.5 -263.5t263.5 -109.5t263 109.5t109 263.5t-109 263.5t-263 109.5t-263.5 -109.5 t-109.5 -263.5zM299 1182q0 40 28.5 68t69.5 28t70 -28t29 -68t-29 -68.5t-70 -28.5t-69.5 28.5t-28.5 68.5zM672 1182q0 40 28.5 68t69.5 28t69.5 -28t28.5 -68t-28.5 -68.5t-69.5 -28.5t-69.5 28.5t-28.5 68.5z" />
<glyph unicode="&#xf7;" horiz-adv-x="1052" d="M66 406v108h921v-108h-921zM428 61q0 34 24 58t58 24t58 -24t24 -58t-24 -57.5t-58 -23.5q-35 0 -58.5 23t-23.5 58zM428 858q0 35 24 59.5t58 24.5t58 -24.5t24 -59.5q0 -34 -24 -57t-58 -23q-35 0 -58.5 23t-23.5 57z" />
<glyph unicode="&#xf8;" horiz-adv-x="1185" d="M109 461q0 131 64.5 241.5t175 175t241.5 64.5q157 0 297 -100l67 78h70l-96 -111q143 -158 143 -348q0 -131 -64.5 -241.5t-175 -175t-241.5 -64.5q-150 0 -291 100l-68 -78h-69l96 113q-149 152 -149 346zM217 461q0 -137 111 -266l487 563q-116 76 -225 76 q-154 0 -263.5 -109.5t-109.5 -263.5zM369 160q119 -72 221 -72q154 0 263.5 109.5t109.5 263.5q0 137 -107 264z" />
<glyph unicode="&#xf9;" horiz-adv-x="1261" d="M139 461v461h109v-461q0 -154 109.5 -263.5t263.5 -109.5t263 109.5t109 263.5v461h109v-942l-139 163q-63 -74 -156 -118.5t-186 -44.5q-131 0 -242 64.5t-175.5 175t-64.5 241.5zM471 1352l90 67l209 -307l-35 -27z" />
<glyph unicode="&#xfa;" horiz-adv-x="1261" d="M139 461v461h109v-461q0 -154 109.5 -263.5t263.5 -109.5t263 109.5t109 263.5v461h109v-942l-139 163q-63 -74 -156 -118.5t-186 -44.5q-131 0 -242 64.5t-175.5 175t-64.5 241.5zM471 1112l209 307l90 -67l-264 -267z" />
<glyph unicode="&#xfb;" horiz-adv-x="1261" d="M139 461v461h109v-461q0 -154 109.5 -263.5t263.5 -109.5t263 109.5t109 263.5v461h109v-942l-139 163q-63 -74 -156 -118.5t-186 -44.5q-131 0 -242 64.5t-175.5 175t-64.5 241.5zM426 1112l192 293l197 -293l-33 -27l-164 170l-159 -170z" />
<glyph unicode="&#xfc;" horiz-adv-x="1261" d="M139 461v461h109v-461q0 -154 109.5 -263.5t263.5 -109.5t263 109.5t109 263.5v461h109v-942l-139 163q-63 -74 -156 -118.5t-186 -44.5q-131 0 -242 64.5t-175.5 175t-64.5 241.5zM336 1182q0 40 28.5 68t69.5 28t69.5 -28t28.5 -68t-28.5 -68.5t-69.5 -28.5t-69.5 28.5 t-28.5 68.5zM709 1182q0 40 28.5 68t69.5 28t69.5 -28t28.5 -68t-28.5 -68.5t-69.5 -28.5t-69.5 28.5t-28.5 68.5z" />
<glyph unicode="&#xfd;" horiz-adv-x="1087" d="M45 922h109l395 -813l393 813h102l-684 -1434h-118l250 512zM395 1112l209 307l90 -67l-264 -267z" />
<glyph unicode="&#xfe;" horiz-adv-x="1220" d="M152 -512v1946h108v-656q187 164 373 164q130 0 241.5 -66t175.5 -177t64 -238t-64 -237.5t-175.5 -176t-241.5 -65.5q-189 0 -373 159v-653h-108zM260 461q0 -150 110 -261.5t263 -111.5t263 111.5t110 261.5t-110 262.5t-263 112.5t-263 -112.5t-110 -262.5z" />
<glyph unicode="&#xff;" horiz-adv-x="1087" d="M45 922h109l395 -813l393 813h102l-684 -1434h-118l250 512zM260 1182q0 40 28.5 68t69.5 28t70 -28t29 -68t-29 -68.5t-70 -28.5t-69.5 28.5t-28.5 68.5zM633 1182q0 40 28.5 68t69.5 28t69.5 -28t28.5 -68t-28.5 -68.5t-69.5 -28.5t-69.5 28.5t-28.5 68.5z" />
<glyph unicode="&#x178;" horiz-adv-x="1114" d="M45 0l475 721l-475 713h121l418 -623l409 623h109l-944 -1434h-113zM289 1634q0 40 28.5 68.5t69.5 28.5t69.5 -28.5t28.5 -68.5t-28.5 -68t-69.5 -28t-69.5 28t-28.5 68zM662 1634q0 40 28.5 68.5t69.5 28.5t69.5 -28.5t28.5 -68.5t-28.5 -68t-69.5 -28t-69.5 28 t-28.5 68z" />
<glyph unicode="&#x2c6;" horiz-adv-x="587" d="M100 1116l191 293l196 -293l-32 -26l-164 170l-158 -170z" />
<glyph unicode="&#x2dc;" horiz-adv-x="933" d="M111 1212q50 85 75 115q55 61 119 64h8q67 0 136 -60q1 -1 13 -11.5t14.5 -12.5t14 -11.5t16 -12.5t15 -10.5t16.5 -10.5l16 -8t17 -7t16 -4t17 -2h8h2q26 0 53 20t41 38t37 53l17 28l53 -41q-50 -80 -106 -129t-97 -51h-6q-63 0 -135 60q-95 83 -158 92 q-48 -4 -77.5 -30t-61.5 -79l-20 -31z" />
<glyph unicode="&#x2000;" horiz-adv-x="948" />
<glyph unicode="&#x2001;" horiz-adv-x="1896" />
<glyph unicode="&#x2002;" horiz-adv-x="948" />
<glyph unicode="&#x2003;" horiz-adv-x="1896" />
<glyph unicode="&#x2004;" horiz-adv-x="632" />
<glyph unicode="&#x2005;" horiz-adv-x="474" />
<glyph unicode="&#x2006;" horiz-adv-x="316" />
<glyph unicode="&#x2007;" horiz-adv-x="316" />
<glyph unicode="&#x2008;" horiz-adv-x="237" />
<glyph unicode="&#x2009;" horiz-adv-x="379" />
<glyph unicode="&#x200a;" horiz-adv-x="105" />
<glyph unicode="&#x2010;" horiz-adv-x="999" d="M39 406v108h922v-108h-922z" />
<glyph unicode="&#x2011;" horiz-adv-x="999" d="M39 406v108h922v-108h-922z" />
<glyph unicode="&#x2012;" horiz-adv-x="999" d="M39 406v108h922v-108h-922z" />
<glyph unicode="&#x2013;" horiz-adv-x="1024" d="M39 406v108h946v-108h-946z" />
<glyph unicode="&#x2014;" horiz-adv-x="2048" d="M39 406v108h1970v-108h-1970z" />
<glyph unicode="&#x2018;" horiz-adv-x="444" d="M131 1313l113 340l47 -39l-68 -205q80 -28 80 -90q0 -38 -25 -64t-61 -26q-34 0 -59.5 24.5t-26.5 59.5z" />
<glyph unicode="&#x2019;" horiz-adv-x="391" d="M123 1548q0 38 25 64t61 26q34 0 59.5 -24.5t26.5 -59.5l-113 -340l-47 39l68 205q-80 28 -80 90z" />
<glyph unicode="&#x201a;" horiz-adv-x="436" d="M121 96q0 39 26 64.5t68 25.5q41 0 72 -24.5t32 -59.5l-135 -340l-57 39l82 205q-49 14 -68.5 36t-19.5 54z" />
<glyph unicode="&#x201c;" horiz-adv-x="827" d="M131 1313l113 340l47 -39l-68 -205q80 -28 80 -90q0 -38 -25 -64t-61 -26q-34 0 -59.5 24.5t-26.5 59.5zM514 1313l113 340l47 -39l-68 -205q80 -28 80 -90q0 -38 -24.5 -64t-59.5 -26t-61 24.5t-27 59.5z" />
<glyph unicode="&#x201d;" horiz-adv-x="690" d="M72 1548q0 38 25 64t61 26q34 0 59.5 -24.5t26.5 -59.5l-113 -340l-47 39l68 205q-80 28 -80 90zM422 1548q0 38 24.5 64t59.5 26t61 -24.5t27 -59.5l-113 -340l-49 39l70 205q-80 28 -80 90z" />
<glyph unicode="&#x201e;" horiz-adv-x="755" d="M111 96q0 38 25 64t61 26q34 0 59.5 -24.5t26.5 -59.5l-113 -340l-47 39l67 205q-79 28 -79 90zM461 96q0 38 24.5 64t59.5 26t61 -24.5t27 -59.5l-113 -340l-49 39l70 205q-80 28 -80 90z" />
<glyph unicode="&#x2022;" horiz-adv-x="839" d="M109 635q0 127 89.5 217t217.5 90t217.5 -90t89.5 -217t-89.5 -217t-217.5 -90t-217.5 90t-89.5 217z" />
<glyph unicode="&#x2026;" horiz-adv-x="1431" d="M127 82q0 43 29.5 73.5t72.5 30.5t74 -30.5t31 -73.5q0 -42 -31 -72t-74 -30t-72.5 29.5t-29.5 72.5zM604 82q0 43 30 73.5t73 30.5t73.5 -30.5t30.5 -73.5t-30.5 -72.5t-73.5 -29.5t-73 29.5t-30 72.5zM1081 82q0 43 30 73.5t73 30.5t73.5 -30.5t30.5 -73.5t-30.5 -72.5 t-73.5 -29.5t-73 29.5t-30 72.5z" />
<glyph unicode="&#x202f;" horiz-adv-x="379" />
<glyph unicode="&#x2039;" horiz-adv-x="497" d="M76 438v31l319 299l-178 -309l178 -281z" />
<glyph unicode="&#x203a;" horiz-adv-x="471" d="M76 178l178 281l-178 309l319 -299v-31z" />
<glyph unicode="&#x205f;" horiz-adv-x="474" />
<glyph unicode="&#x20ac;" horiz-adv-x="1318" d="M53 455v106h160q-18 93 -18 156q0 5 1 29t1 49h-144v106h164q70 241 267.5 387t451.5 146h315l-69 -107h-244q-205 0 -368.5 -113t-239.5 -313h575l-69 -106h-523q-10 -39 -10 -78q0 -61 21 -156h360l-70 -106h-252q97 -170 246.5 -259.5t329.5 -89.5h365v-106h-367 q-231 0 -416.5 122.5t-273.5 332.5h-193z" />
<glyph unicode="&#x2122;" horiz-adv-x="1474" d="M31 1380v52h520v-52h-232v-659h-57v659h-231zM604 721v356q0 154 107.5 262.5t261.5 108.5q151 0 256.5 -108.5t105.5 -262.5v-356h-59v354q0 119 -76 207.5t-201 106.5v-668h-57v668q-126 -20 -201 -107.5t-75 -206.5v-354h-62z" />
<glyph unicode="&#xe000;" horiz-adv-x="921" d="M0 0v922h922v-922h-922z" />
</font>
</defs>
</svg>
